<?xml version="1.0" encoding="UTF-8"?>
<!DOCTYPE svg PUBLIC "-//W3C//DTD SVG 1.1//EN" "http://www.w3.org/Graphics/SVG/1.1/DTD/svg11.dtd">
<!-- Creator: CorelDRAW (Evaluation Version) -->
<svg xmlns="http://www.w3.org/2000/svg" xml:space="preserve" width="140px" height="40px" version="1.1" style="shape-rendering:geometricPrecision; text-rendering:geometricPrecision; image-rendering:optimizeQuality; fill-rule:evenodd; clip-rule:evenodd"
viewBox="0 0 140 40"
 xmlns:xlink="http://www.w3.org/1999/xlink"
 xmlns:xodm="http://www.corel.com/coreldraw/odm/2003">
 <defs>
  <style type="text/css">
   <![CDATA[
    .fil2 {fill:white}
    .fil1 {fill:black}
    .fil0 {fill:#CC0033}
   ]]>
  </style>
 </defs>
 <g id="Layer_x0020_1">
  <metadata id="CorelCorpID_0Corel-Layer"/>
  <g id="_105553397526240">
   <polygon class="fil0" points="1.84,1.82 38.3,1.82 38.3,38.16 1.84,38.16 "/>
   <path class="fil1" d="M20.14 -0.02l20 0 0 40.02 -20 0 -20.15 0 0 -40.02 20.15 0zm0 36.51c9.34,-1.44 14.33,-8.96 13.52,-18.49 -1.07,-9.31 -7.46,-13.8 -13.52,-14.41 -0.5,-0.05 -1,-0.08 -1.5,-0.07l-12.11 -0.05 0 33.15 3.31 0.01 0 -29.8 7.48 0c0.96,-0.05 1.9,0.01 2.82,0.17 5.31,0.92 9.65,5.33 9.77,12.79 0,7.31 -3.17,11.74 -9.77,13.07 -1.41,0.29 -2.98,0.43 -4.71,0.42l0 3.37 3.24 0.01c0.5,-0.04 0.99,-0.1 1.47,-0.17z"/>
   <polygon class="fil1" points="90.66,-0.02 130.82,-0.02 130.82,40 90.66,40 "/>
   <polygon class="fil1" points="45.39,-0.02 85.54,-0.02 85.54,40 45.39,40 "/>
   <path class="fil2" d="M75.03 14.46l4.54 0.01 -5.94 12.61 8.7 6.9 -2.57 2.7 -7.98 -6.17c-2.48,4.5 -6.45,7.19 -12.93,6.86l0 -4.51c3.07,-0.28 6.11,-1.87 8.19,-5.36l-8.19 -6.51 0 -5.94c1.7,-0.65 3.2,-1.53 4.18,-3.02 1.29,-2.39 0.77,-4.07 -0.4,-5.51 -0.99,-0.87 -2.38,-1.41 -3.78,-1.48l0 -2.11c5.02,-0.89 9.13,1.43 10.87,4.99 2.07,5.6 -2.09,9.23 -7.69,10.13l7.5 5.85 5.5 -9.44zm-16.18 22.91l-0.24 -0.01c-5.34,-0.32 -10.01,-4.57 -10.22,-9.69 -0.15,-4.66 2.98,-7.99 7.33,-9.93 -5.35,-3.2 -6.79,-10.4 0.58,-14.1 0.87,-0.33 1.72,-0.57 2.55,-0.71l0 2.11c-1.98,-0.11 -3.99,0.72 -4.97,2.87 -1.05,2.79 0.49,5.16 4.02,7.47 0.32,-0.1 0.64,-0.22 0.95,-0.33l0 5.94 -2.33 -1.85c-4.14,1.91 -6.66,4.72 -5.63,9.01 1.07,2.99 3.4,4.49 6.79,4.76 0.39,0.01 0.78,-0.01 1.17,-0.05l0 4.51z"/>
   <path class="fil2" d="M99.06 3.4l4.1 0 0 15.89 5.98 0c5.57,0.02 8.89,-1.74 8.83,-6.66 -0.13,-3.48 -2.87,-5.59 -9.11,-5.77l0 -3.45c4.45,-0.09 8.34,0.59 10.83,3.16 4.07,3.98 3.63,11.13 -1.48,14.31 -2.13,1.35 -4.93,1.95 -8.21,2l-6.84 0 0 14.07 -4.1 0 0 -33.55z"/>
  </g>
 </g>
</svg>
